# xmcd CD database file
#
# Track frame offsets:
#	150
#	18005
#	27413
#	42405
#	60910
#	85392
#	98027
#	119370
#	138188
#	155442
#	165530
#	185072
#	206145
#	221138
#
# Disc length: 3304 seconds
#
# Revision: 0
# Processed by: cddbd v1.4PL0 Copyright (c) Steve Scherf et al.
# Submitted via: CDex 1.51
#
DISCID=bd0ce60e
DTITLE=Various Artist - Los mas Selecto de la Salsa
DYEAR=1996
DGENRE=Salsa
TTITLE0=No Pasara lo Mismo
TTITLE1=Componte Cundunga
TTITLE2=Bailaderos
TTITLE3=Ron Y Basura
TTITLE4=Ahora Si
TTITLE5=Lleva Y Trae
TTITLE6=Toma Y Dame
TTITLE7=Tu, Ana Maria
TTITLE8=Mientema Amor
TTITLE9=Damela Que tu la Tienes
TTITLE10=Homenaje a Benny More
TTITLE11=Fantasia Latina
TTITLE12=Por Siempre te Amare
TTITLE13=Feria de Manizales
EXTD=YEAR: 1996
EXTT0=
EXTT1=
EXTT2=
EXTT3=
EXTT4=
EXTT5=
EXTT6=
EXTT7=
EXTT8=
EXTT9=
EXTT10=
EXTT11=
EXTT12=
EXTT13=
PLAYORDER=
